<svg width="14" height="9" viewBox="0 0 14 9" fill="none" xmlns="http://www.w3.org/2000/svg">
<g id="Group">
<path id="17" d="M13.9678 1.02728C13.9686 1.15889 13.9433 1.28935 13.8936 1.41119C13.8438 1.53303 13.7705 1.64384 13.6778 1.73728L7.6778 7.73728C7.49044 7.92353 7.23699 8.02808 6.9728 8.02808C6.70861 8.02808 6.45516 7.92353 6.2678 7.73728L0.267801 1.73728C0.103974 1.54598 0.0183681 1.29991 0.0280892 1.04823C0.0378104 0.796554 0.142142 0.557815 0.320237 0.379721C0.498331 0.201626 0.737071 0.0972933 0.988747 0.0875721C1.24042 0.0778508 1.4865 0.163457 1.6778 0.327284L6.9678 5.61728L12.2578 0.327283C12.3971 0.186862 12.5749 0.0908908 12.7687 0.0515055C12.9625 0.0121206 13.1636 0.0310902 13.3467 0.106016C13.5297 0.180941 13.6864 0.308458 13.797 0.472441C13.9075 0.636424 13.967 0.82951 13.9678 1.02728Z" fill="white"/>
</g>
</svg>
