<svg width="14" height="9" viewBox="0 0 14 9" fill="none" xmlns="http://www.w3.org/2000/svg">
<g id="Group">
<path id="17" d="M0.0282923 7.03229C0.0275313 6.90068 0.052756 6.77022 0.102521 6.64838C0.152285 6.52654 0.225612 6.41573 0.318293 6.32229L6.31829 0.322286C6.50566 0.136035 6.75911 0.0314938 7.02329 0.0314938C7.28748 0.0314938 7.54093 0.136035 7.72829 0.322286L13.7283 6.32229C13.8921 6.51359 13.9777 6.75966 13.968 7.01134C13.9583 7.26302 13.854 7.50176 13.6759 7.67985C13.4978 7.85794 13.259 7.96228 13.0073 7.972C12.7557 7.98172 12.5096 7.89611 12.3183 7.73229L7.02829 2.44229L1.73829 7.73229C1.59902 7.87271 1.42124 7.96868 1.22743 8.00806C1.03361 8.04745 0.832471 8.02848 0.649439 7.95355C0.466407 7.87863 0.309703 7.75111 0.199139 7.58713C0.088576 7.42314 0.029122 7.23006 0.0282923 7.03229Z" fill="white"/>
</g>
</svg>
