<svg width="48" height="48" viewBox="0 0 48 48" fill="none" xmlns="http://www.w3.org/2000/svg">
<g id="photo">
<g id="Group">
<g id="Layer 53">
<path id="Vector" d="M42.1991 19.9539C41.8536 19.9584 41.5235 20.0977 41.2791 20.3421C41.0348 20.5864 40.8955 20.9165 40.891 21.2621V31.7275L33.6 23.3901C33.1368 22.8969 32.5775 22.5039 31.9565 22.2352C31.3355 21.9665 30.6661 21.8279 29.9895 21.8279C29.3129 21.8279 28.6434 21.9665 28.0225 22.2352C27.4015 22.5039 26.8421 22.8969 26.3789 23.3901L21.3729 29.1112L19.7333 27.1227C19.2815 26.5808 18.7161 26.1447 18.0771 25.8455C17.4381 25.5463 16.7411 25.3912 16.0356 25.3912C15.33 25.3912 14.633 25.5463 13.994 25.8455C13.355 26.1447 12.7896 26.5808 12.3378 27.1227L8.62254 31.6054V14.2851C8.62714 12.7831 9.22586 11.3439 10.288 10.2818C11.3501 9.21968 12.7893 8.62096 14.2913 8.61636H28.2452C28.5922 8.61636 28.9249 8.47853 29.1703 8.2332C29.4156 7.98787 29.5534 7.65513 29.5534 7.30818C29.5534 6.96123 29.4156 6.62849 29.1703 6.38316C28.9249 6.13783 28.5922 6 28.2452 6H14.2913C12.094 6 9.9866 6.8729 8.43284 8.42666C6.87907 9.98042 6.00618 12.0878 6.00618 14.2851V35.216C5.99794 35.2445 5.99794 35.2747 6.00618 35.3032C6.02915 37.4854 6.91218 39.5704 8.46346 41.1054C10.0147 42.6404 12.109 43.5013 14.2913 43.5011H35.2222C37.3955 43.4968 39.4801 42.6387 41.0267 41.1117C42.5732 39.5847 43.4579 37.5112 43.4899 35.3381V21.2621C43.4855 20.9195 43.3486 20.5919 43.108 20.348C42.8674 20.1041 42.5416 19.9629 42.1991 19.9539ZM35.2222 40.8848H14.2913C12.8665 40.8802 11.4956 40.3393 10.4516 39.3696C9.40758 38.4 8.76702 37.0727 8.65742 35.6521L14.2913 28.7972C14.5023 28.5621 14.7605 28.3741 15.049 28.2454C15.3375 28.1166 15.6499 28.0501 15.9658 28.0501C16.2817 28.0501 16.5941 28.1166 16.8826 28.2454C17.1711 28.3741 17.4292 28.5621 17.6403 28.7972L20.2741 31.9717C20.3948 32.1186 20.5466 32.237 20.7185 32.3184C20.8904 32.3998 21.0781 32.4423 21.2683 32.4427C21.6449 32.4219 21.9999 32.26 22.2625 31.9892L28.2627 25.1169C28.4761 24.892 28.7331 24.713 29.018 24.5906C29.3029 24.4683 29.6097 24.4052 29.9197 24.4052C30.2297 24.4052 30.5365 24.4683 30.8214 24.5906C31.1063 24.713 31.3633 24.892 31.5767 25.1169L40.7689 35.5823C40.6813 37.002 40.0616 38.3364 39.0334 39.3192C38.0053 40.3021 36.6443 40.8611 35.2222 40.8848Z" fill="#AD7955"/>
<path id="Vector (Stroke)" fill-rule="evenodd" clip-rule="evenodd" d="M42.2097 19.5541C42.6556 19.5658 43.0796 19.7497 43.3928 20.0672C43.7061 20.3847 43.8842 20.8111 43.8899 21.2571L43.89 21.2622L43.89 35.3441C43.8564 37.6221 42.929 39.7957 41.3078 41.3964C39.6866 42.9971 37.5014 43.8967 35.2231 43.9012H14.2914C12.0037 43.9014 9.80839 42.9989 8.18221 41.3898C6.5651 39.7897 5.64072 37.6194 5.60678 35.3458C5.59804 35.2898 5.59787 35.2329 5.60628 35.177V14.2852C5.60628 11.9818 6.52131 9.77269 8.15009 8.14392C9.77887 6.51514 11.988 5.6001 14.2914 5.6001H28.2453C28.6984 5.6001 29.1328 5.78007 29.4532 6.10041C29.7735 6.42076 29.9535 6.85524 29.9535 7.30828C29.9535 7.76131 29.7735 8.1958 29.4532 8.51614C29.1328 8.83649 28.6984 9.01646 28.2453 9.01646H14.292C12.8959 9.02089 11.5582 9.57748 10.5709 10.5647C9.58366 11.552 9.02707 12.8897 9.02263 14.2858V30.4961L12.0299 26.8676C12.5192 26.2806 13.1324 25.8074 13.8245 25.4833C14.5165 25.1592 15.2714 24.9913 16.0357 24.9913C16.7999 24.9913 17.5548 25.1592 18.2469 25.4833C18.939 25.8074 19.5513 26.2797 20.0407 26.8667L20.0421 26.8684L21.3821 28.4935L26.0873 23.1161C26.5879 22.5832 27.1926 22.1586 27.8637 21.8682C28.5348 21.5778 29.2583 21.428 29.9896 21.428C30.7208 21.428 31.4443 21.5778 32.1154 21.8682C32.7865 22.1586 33.391 22.5833 33.8917 23.1163L33.9014 23.1267L40.4911 30.6626V21.257C40.4969 20.8071 40.6783 20.3774 40.9964 20.0593C41.3145 19.7412 41.7442 19.5599 42.194 19.554L42.2097 19.5541ZM40.8911 31.7276L33.6001 23.3902C33.1369 22.897 32.5776 22.504 31.9566 22.2353C31.3356 21.9666 30.6662 21.828 29.9896 21.828C29.313 21.828 28.6435 21.9666 28.0226 22.2353C27.4016 22.504 26.8422 22.897 26.379 23.3902L21.373 29.1113L19.7334 27.1228C19.2816 26.5809 18.7162 26.1448 18.0772 25.8456C17.4382 25.5464 16.7412 25.3913 16.0357 25.3913C15.3301 25.3913 14.6331 25.5464 13.9941 25.8456C13.3551 26.1448 12.7897 26.5809 12.3379 27.1228L8.62263 31.6055V14.2852C8.62724 12.7832 9.22596 11.344 10.2881 10.2819C11.3502 9.21978 12.7894 8.62106 14.2914 8.61646H28.2453C28.5923 8.61646 28.925 8.47863 29.1703 8.2333C29.4157 7.98797 29.5535 7.65523 29.5535 7.30828C29.5535 6.96133 29.4157 6.62859 29.1703 6.38325C28.925 6.13792 28.5923 6.0001 28.2453 6.0001H14.2914C12.0941 6.0001 9.9867 6.87299 8.43294 8.42676C6.87917 9.98052 6.00628 12.0879 6.00628 14.2852V35.2161C5.99804 35.2446 5.99804 35.2748 6.00628 35.3033C6.02925 37.4855 6.91227 39.5705 8.46356 41.1055C10.0148 42.6405 12.1091 43.5014 14.2914 43.5012H35.2223C37.3956 43.4969 39.4802 42.6388 41.0268 41.1118C42.5733 39.5848 43.458 37.5113 43.49 35.3382V21.2622C43.4856 20.9196 43.3487 20.592 43.1081 20.3481C42.8675 20.1042 42.5417 19.963 42.1992 19.954C41.8537 19.9585 41.5236 20.0978 41.2792 20.3422C41.0349 20.5865 40.8956 20.9166 40.8911 21.2622V31.7276ZM21.2684 32.4428C21.0782 32.4424 20.8904 32.3999 20.7186 32.3185C20.5467 32.2371 20.3949 32.1187 20.2742 31.9718L17.6404 28.7973C17.4293 28.5622 17.1712 28.3742 16.8827 28.2455C16.5942 28.1167 16.2818 28.0502 15.9659 28.0502C15.65 28.0502 15.3376 28.1167 15.0491 28.2455C14.7606 28.3742 14.5024 28.5622 14.2914 28.7973L8.65752 35.6522C8.76712 37.0728 9.40768 38.4001 10.4517 39.3697C11.4957 40.3394 12.8666 40.8803 14.2914 40.8849H35.2223C36.6444 40.8612 38.0054 40.3022 39.0335 39.3193C40.0617 38.3365 40.6814 37.002 40.769 35.5824L31.5768 25.117C31.3634 24.8921 31.1064 24.7131 30.8215 24.5907C30.5366 24.4684 30.2298 24.4053 29.9198 24.4053C29.6098 24.4053 29.303 24.4684 29.0181 24.5907C28.7332 24.7131 28.4762 24.8921 28.2628 25.117L22.2626 31.9893C22 32.2601 21.645 32.422 21.2684 32.4428ZM28.5583 25.3866L22.5501 32.2681C22.2175 32.6111 21.7675 32.8158 21.2904 32.8422L21.2675 32.8434C21.0184 32.8429 20.7725 32.7867 20.5473 32.68C20.3226 32.5735 20.1241 32.4188 19.966 32.2268C19.9657 32.2265 19.9662 32.2271 19.966 32.2268L17.3377 29.059C17.1651 28.8682 16.9546 28.7156 16.7197 28.6108C16.4825 28.5049 16.2256 28.4502 15.9659 28.4502C15.7061 28.4502 15.4493 28.5049 15.2121 28.6108C14.9774 28.7155 14.7671 28.8679 14.5946 29.0583L9.07089 35.7792C9.20635 37.0398 9.79232 38.2114 10.7239 39.0766C11.6942 39.9779 12.9684 40.4807 14.2927 40.4849H35.2188C36.5391 40.4621 37.8025 39.9428 38.7571 39.0302C39.6733 38.1544 40.2404 36.9781 40.3572 35.7197L31.2816 25.387C31.1066 25.2041 30.8964 25.0582 30.6636 24.9583C30.4286 24.8574 30.1756 24.8053 29.9198 24.8053C29.664 24.8053 29.411 24.8574 29.176 24.9583C28.9434 25.0582 28.7334 25.2038 28.5583 25.3866Z" fill="#AD7955"/>
<path id="Vector_2" d="M11.2393 16.0294C11.2393 16.9781 11.5206 17.9054 12.0476 18.6943C12.5747 19.4831 13.3238 20.0979 14.2003 20.4609C15.0768 20.824 16.0412 20.9189 16.9717 20.7339C17.9022 20.5488 18.7568 20.092 19.4277 19.4211C20.0985 18.7503 20.5553 17.8956 20.7404 16.9652C20.9255 16.0347 20.8305 15.0702 20.4675 14.1938C20.1044 13.3173 19.4896 12.5682 18.7008 12.0411C17.912 11.514 16.9846 11.2327 16.0359 11.2327C14.7638 11.2327 13.5437 11.7381 12.6442 12.6376C11.7446 13.5372 11.2393 14.7572 11.2393 16.0294ZM18.2162 16.0294C18.2162 16.4606 18.0883 16.8821 17.8488 17.2407C17.6092 17.5992 17.2687 17.8787 16.8703 18.0437C16.4719 18.2087 16.0335 18.2519 15.6106 18.1678C15.1876 18.0837 14.7991 17.876 14.4942 17.5711C14.1893 17.2662 13.9816 16.8777 13.8975 16.4547C13.8134 16.0318 13.8566 15.5934 14.0216 15.195C14.1866 14.7966 14.4661 14.4561 14.8246 14.2165C15.1832 13.9769 15.6047 13.8491 16.0359 13.8491C16.6142 13.8491 17.1687 14.0788 17.5776 14.4877C17.9865 14.8966 18.2162 15.4511 18.2162 16.0294ZM31.7341 13.8491H35.6586V17.7736C35.6586 18.1206 35.7964 18.4533 36.0418 18.6986C36.2871 18.944 36.6198 19.0818 36.9668 19.0818C37.3137 19.0818 37.6465 18.944 37.8918 18.6986C38.1371 18.4533 38.275 18.1206 38.275 17.7736V13.8491H42.1995C42.5465 13.8491 42.8792 13.7113 43.1245 13.4659C43.3699 13.2206 43.5077 12.8878 43.5077 12.5409C43.5077 12.1939 43.3699 11.8612 43.1245 11.6159C42.8792 11.3705 42.5465 11.2327 42.1995 11.2327H38.275V7.30818C38.275 6.96123 38.1371 6.62849 37.8918 6.38316C37.6465 6.13783 37.3137 6 36.9668 6C36.6198 6 36.2871 6.13783 36.0418 6.38316C35.7964 6.62849 35.6586 6.96123 35.6586 7.30818V11.2327H31.7341C31.3871 11.2327 31.0544 11.3705 30.809 11.6159C30.5637 11.8612 30.4259 12.1939 30.4259 12.5409C30.4259 12.8878 30.5637 13.2206 30.809 13.4659C31.0544 13.7113 31.3871 13.8491 31.7341 13.8491Z" fill="#AD7955"/>
<path id="Vector (Stroke)_2" fill-rule="evenodd" clip-rule="evenodd" d="M11.7152 18.9166C11.1441 18.062 10.8394 17.0573 10.8394 16.0295C10.8394 14.6512 11.3869 13.3294 12.3614 12.3549C13.336 11.3803 14.6578 10.8328 16.036 10.8328C17.0638 10.8328 18.0685 11.1376 18.9231 11.7086C19.7777 12.2796 20.4438 13.0912 20.8371 14.0408C21.2304 14.9904 21.3333 16.0352 21.1328 17.0433C20.9323 18.0513 20.4374 18.9773 19.7106 19.7041C18.9838 20.4308 18.0579 20.9258 17.0498 21.1263C16.0418 21.3268 14.9969 21.2239 14.0473 20.8306C13.0978 20.4372 12.2862 19.7712 11.7152 18.9166ZM17.5163 17.0186C17.7119 16.7258 17.8163 16.3816 17.8163 16.0295C17.8163 15.5573 17.6287 15.1045 17.2949 14.7706C16.961 14.4367 16.5082 14.2492 16.036 14.2492C15.6839 14.2492 15.3397 14.3536 15.0469 14.5492C14.7542 14.7448 14.526 15.0229 14.3912 15.3482C14.2565 15.6735 14.2212 16.0314 14.2899 16.3768C14.3586 16.7221 14.5282 17.0394 14.7772 17.2883C15.0261 17.5373 15.3434 17.7069 15.6887 17.7756C16.034 17.8443 16.392 17.809 16.7173 17.6743C17.0426 17.5395 17.3207 17.3113 17.5163 17.0186ZM35.2587 14.2492H31.7342C31.2811 14.2492 30.8467 14.0692 30.5263 13.7489C30.206 13.4285 30.026 12.994 30.026 12.541C30.026 12.088 30.206 11.6535 30.5263 11.3331C30.8467 11.0128 31.2811 10.8328 31.7342 10.8328H35.2587V7.30828C35.2587 6.85524 35.4387 6.42076 35.759 6.10041C36.0794 5.78007 36.5139 5.6001 36.9669 5.6001C37.4199 5.6001 37.8544 5.78007 38.1748 6.10041C38.4951 6.42076 38.6751 6.85524 38.6751 7.30828V10.8328H42.1996C42.6526 10.8328 43.0871 11.0128 43.4075 11.3331C43.7278 11.6535 43.9078 12.088 43.9078 12.541C43.9078 12.994 43.7278 13.4285 43.4075 13.7489C43.0871 14.0692 42.6526 14.2492 42.1996 14.2492H38.6751V17.7737C38.6751 18.2267 38.4951 18.6612 38.1748 18.9816C37.8544 19.3019 37.4199 19.4819 36.9669 19.4819C36.5139 19.4819 36.0794 19.3019 35.759 18.9816C35.4387 18.6612 35.2587 18.2267 35.2587 17.7737V14.2492ZM12.0477 18.6944C11.5207 17.9055 11.2394 16.9782 11.2394 16.0295C11.2394 14.7573 11.7447 13.5373 12.6443 12.6377C13.5438 11.7382 14.7639 11.2328 16.036 11.2328C16.9847 11.2328 17.9121 11.5141 18.7009 12.0412C19.4897 12.5683 20.1045 13.3174 20.4675 14.1939C20.8306 15.0703 20.9256 16.0348 20.7405 16.9653C20.5554 17.8957 20.0986 18.7504 19.4278 19.4212C18.7569 20.092 17.9023 20.5489 16.9718 20.734C16.0413 20.919 15.0769 20.8241 14.2004 20.461C13.3239 20.098 12.5748 19.4832 12.0477 18.6944ZM17.8489 17.2408C18.0884 16.8822 18.2163 16.4607 18.2163 16.0295C18.2163 15.4512 17.9866 14.8967 17.5777 14.4878C17.1688 14.0789 16.6143 13.8492 16.036 13.8492C15.6048 13.8492 15.1833 13.977 14.8247 14.2166C14.4662 14.4562 14.1867 14.7967 14.0217 15.1951C13.8567 15.5935 13.8135 16.0319 13.8976 16.4548C13.9817 16.8778 14.1894 17.2663 14.4943 17.5712C14.7992 17.8761 15.1877 18.0838 15.6107 18.1679C16.0336 18.252 16.472 18.2088 16.8704 18.0438C17.2688 17.8788 17.6093 17.5993 17.8489 17.2408ZM31.7342 13.8492C31.3872 13.8492 31.0545 13.7113 30.8091 13.466C30.5638 13.2207 30.426 12.8879 30.426 12.541C30.426 12.194 30.5638 11.8613 30.8091 11.616C31.0545 11.3706 31.3872 11.2328 31.7342 11.2328H35.6587V7.30828C35.6587 6.96133 35.7965 6.62859 36.0419 6.38325C36.2872 6.13792 36.6199 6.0001 36.9669 6.0001C37.3138 6.0001 37.6466 6.13792 37.8919 6.38325C38.1372 6.62859 38.2751 6.96133 38.2751 7.30828V11.2328H42.1996C42.5466 11.2328 42.8793 11.3706 43.1246 11.616C43.37 11.8613 43.5078 12.194 43.5078 12.541C43.5078 12.8879 43.37 13.2207 43.1246 13.466C42.8793 13.7113 42.5466 13.8492 42.1996 13.8492H38.2751V17.7737C38.2751 18.1207 38.1372 18.4534 37.8919 18.6987C37.6466 18.9441 37.3138 19.0819 36.9669 19.0819C36.6199 19.0819 36.2872 18.9441 36.0419 18.6987C35.7965 18.4534 35.6587 18.1207 35.6587 17.7737V13.8492H31.7342Z" fill="#AD7955"/>
</g>
</g>
</g>
</svg>
