<svg width="18" height="18" viewBox="0 0 18 18" fill="none" xmlns="http://www.w3.org/2000/svg">
<g id="Group">
<path id="Vector" d="M10.6462 9L17.6587 1.98757C17.7673 1.87945 17.8534 1.75087 17.9119 1.60926C17.9705 1.46765 18.0004 1.31582 17.9999 1.16258C18.0018 1.00968 17.9726 0.858005 17.9139 0.716805C17.8552 0.575604 17.7684 0.447847 17.6587 0.341335C17.5522 0.23163 17.4244 0.144789 17.2832 0.0861171C17.142 0.0274448 16.9903 -0.00182741 16.8374 8.83066e-05C16.6842 -0.000411357 16.5324 0.0294921 16.3907 0.0880675C16.2491 0.146643 16.1205 0.232727 16.0124 0.341335L9 7.35377L1.98757 0.341335C1.87945 0.232727 1.75087 0.146643 1.60926 0.0880675C1.46765 0.0294921 1.31582 -0.000411357 1.16258 8.83066e-05C1.00968 -0.00182741 0.858005 0.0274448 0.716805 0.0861171C0.575604 0.144789 0.447847 0.23163 0.341335 0.341335C0.23163 0.447847 0.144789 0.575604 0.0861171 0.716805C0.0274448 0.858005 -0.00182741 1.00968 8.83066e-05 1.16258C-0.000411357 1.31582 0.0294921 1.46765 0.0880675 1.60926C0.146643 1.75087 0.232727 1.87945 0.341335 1.98757L7.35377 9L0.341335 16.0124C0.232727 16.1205 0.146643 16.2491 0.0880675 16.3907C0.0294921 16.5324 -0.000411357 16.6842 8.83066e-05 16.8374C-0.00182741 16.9903 0.0274448 17.142 0.0861171 17.2832C0.144789 17.4244 0.23163 17.5522 0.341335 17.6587C0.447847 17.7684 0.575604 17.8552 0.716805 17.9139C0.858005 17.9726 1.00968 18.0018 1.16258 17.9999C1.31582 18.0004 1.46765 17.9705 1.60926 17.9119C1.75087 17.8534 1.87945 17.7673 1.98757 17.6587L9 10.6462L16.0124 17.6587C16.1205 17.7673 16.2491 17.8534 16.3907 17.9119C16.5324 17.9705 16.6842 18.0004 16.8374 17.9999C17.1454 17.9989 17.4405 17.8761 17.6583 17.6583C17.8761 17.4405 17.9989 17.1454 17.9999 16.8374C18.0004 16.6842 17.9705 16.5324 17.9119 16.3907C17.8534 16.2491 17.7673 16.1205 17.6587 16.0124L10.6462 9Z" fill="#777777"/>
</g>
</svg>
