<svg width="27" height="27" viewBox="0 0 27 27" fill="none" xmlns="http://www.w3.org/2000/svg">
<g id="Group">
<g id="Layer 53">
<path id="Vector" d="M25.1328 10.3026C24.9024 10.3056 24.6823 10.3985 24.5194 10.5614C24.3565 10.7243 24.2637 10.9444 24.2606 11.1747V18.1517L19.4 12.5934C19.0912 12.2646 18.7183 12.0026 18.3043 11.8235C17.8903 11.6444 17.444 11.552 16.993 11.552C16.5419 11.552 16.0956 11.6444 15.6816 11.8235C15.2677 12.0026 14.8948 12.2646 14.5859 12.5934L11.2486 16.4074L10.1556 15.0818C9.85436 14.7205 9.47742 14.4298 9.05142 14.2303C8.62541 14.0308 8.16077 13.9274 7.69037 13.9274C7.21997 13.9274 6.75533 14.0308 6.32932 14.2303C5.90332 14.4298 5.52638 14.7205 5.22518 15.0818L2.74836 18.0703V6.52343C2.75142 5.52207 3.15057 4.5626 3.85864 3.85453C4.56672 3.14645 5.52618 2.74731 6.52754 2.74424H15.8302C16.0615 2.74424 16.2833 2.65236 16.4468 2.4888C16.6104 2.32525 16.7023 2.10342 16.7023 1.87212C16.7023 1.64082 16.6104 1.41899 16.4468 1.25544C16.2833 1.09188 16.0615 1 15.8302 1H6.52754C5.06264 1 3.65774 1.58193 2.62189 2.61777C1.58605 3.65362 1.00412 5.05852 1.00412 6.52343V20.4773C0.998627 20.4963 0.998627 20.5165 1.00412 20.5355C1.01943 21.9903 1.60812 23.3803 2.64231 24.4036C3.67649 25.4269 5.07266 26.0008 6.52754 26.0008H20.4815C21.9304 25.9979 23.3201 25.4258 24.3511 24.4078C25.3822 23.3898 25.9719 22.0075 25.9933 20.5587V11.1747C25.9903 10.9463 25.8991 10.7279 25.7387 10.5654C25.5782 10.4028 25.3611 10.3086 25.1328 10.3026ZM20.4815 24.2565H6.52754C5.57765 24.2535 4.66373 23.8929 3.96772 23.2464C3.27172 22.6 2.84468 21.7151 2.77161 20.768L6.52754 16.1981C6.66822 16.0414 6.84033 15.9161 7.03267 15.8302C7.225 15.7444 7.43325 15.7001 7.64386 15.7001C7.85447 15.7001 8.06271 15.7444 8.25505 15.8302C8.44738 15.9161 8.61949 16.0414 8.76017 16.1981L10.516 18.3145C10.5966 18.4124 10.6977 18.4913 10.8123 18.5456C10.9269 18.5999 11.0521 18.6282 11.1788 18.6284C11.4299 18.6146 11.6666 18.5066 11.8417 18.3261L15.8418 13.7446C15.9841 13.5947 16.1554 13.4753 16.3453 13.3938C16.5353 13.3122 16.7398 13.2701 16.9465 13.2701C17.1532 13.2701 17.3577 13.3122 17.5476 13.3938C17.7375 13.4753 17.9088 13.5947 18.0512 13.7446L24.1792 20.7215C24.1208 21.668 23.7077 22.5576 23.0223 23.2128C22.3369 23.8681 21.4296 24.2408 20.4815 24.2565Z" fill="#653012"/>
<path id="Vector (Stroke)" fill-rule="evenodd" clip-rule="evenodd" d="M25.1398 10.0361C25.4371 10.0439 25.7197 10.1665 25.9286 10.3781C26.1374 10.5898 26.2562 10.8741 26.26 11.1714L26.26 11.1748L26.26 20.5627C26.2376 22.0814 25.6194 23.5305 24.5385 24.5976C23.4577 25.6647 22.0009 26.2645 20.4821 26.2675H6.52762C5.0025 26.2676 3.53893 25.6659 2.45481 24.5932C1.37673 23.5265 0.760478 22.0796 0.737856 20.5638C0.732028 20.5266 0.731915 20.4886 0.737517 20.4513V6.52349C0.737517 4.98786 1.34754 3.51513 2.4334 2.42928C3.51925 1.34342 4.99198 0.733398 6.52761 0.733398H15.8302C16.1322 0.733398 16.4219 0.853377 16.6355 1.06694C16.849 1.2805 16.969 1.57016 16.969 1.87218C16.969 2.17421 16.849 2.46386 16.6355 2.67743C16.4219 2.89099 16.1322 3.01097 15.8302 3.01097H6.52802C5.59725 3.01393 4.70544 3.38499 4.04727 4.04315C3.38911 4.70132 3.01805 5.59313 3.01509 6.5239V17.3307L5.01993 14.9117C5.34615 14.5204 5.7549 14.205 6.2163 13.9889C6.6777 13.7728 7.18095 13.6608 7.69043 13.6608C8.19992 13.6608 8.70317 13.7728 9.16457 13.9889C9.62597 14.205 10.0342 14.5198 10.3605 14.9111L10.3614 14.9122L11.2547 15.9957L14.3915 12.4108C14.7253 12.0554 15.1284 11.7724 15.5758 11.5788C16.0232 11.3852 16.5056 11.2853 16.993 11.2853C17.4805 11.2853 17.9629 11.3852 18.4103 11.5788C18.8577 11.7724 19.2607 12.0555 19.5945 12.4109L19.601 12.4178L23.994 17.4417V11.1713C23.998 10.8714 24.1189 10.5849 24.3309 10.3729C24.543 10.1608 24.8295 10.04 25.1293 10.036L25.1398 10.0361ZM24.2607 18.1518L19.4001 12.5934C19.0913 12.2647 18.7184 12.0026 18.3044 11.8235C17.8904 11.6444 17.4441 11.552 16.993 11.552C16.542 11.552 16.0957 11.6444 15.6817 11.8235C15.2677 12.0026 14.8948 12.2647 14.586 12.5934L11.2487 16.4075L10.1556 15.0819C9.85443 14.7206 9.47748 14.4299 9.05148 14.2304C8.62548 14.0309 8.16083 13.9275 7.69043 13.9275C7.22004 13.9275 6.75539 14.0309 6.32939 14.2304C5.90339 14.4299 5.52644 14.7206 5.22524 15.0819L2.74842 18.0704V6.52349C2.75149 5.52213 3.15064 4.56266 3.85871 3.85459C4.56678 3.14652 5.52625 2.74737 6.52761 2.7443H15.8302C16.0615 2.7443 16.2833 2.65242 16.4469 2.48887C16.6105 2.32531 16.7023 2.10349 16.7023 1.87218C16.7023 1.64088 16.6105 1.41906 16.4469 1.2555C16.2833 1.09195 16.0615 1.00007 15.8302 1.00007H6.52761C5.06271 1.00007 3.6578 1.582 2.62196 2.61784C1.58611 3.65368 1.00418 5.05859 1.00418 6.52349V20.4774C0.998692 20.4964 0.998692 20.5166 1.00418 20.5355C1.0195 21.9903 1.60818 23.3804 2.64237 24.4037C3.67656 25.427 5.07272 26.0009 6.52761 26.0008H20.4815C21.9304 25.9979 23.3202 25.4258 24.3512 24.4079C25.3822 23.3899 25.972 22.0075 25.9933 20.5588V11.1748C25.9904 10.9464 25.8992 10.728 25.7387 10.5654C25.5783 10.4028 25.3612 10.3087 25.1328 10.3027C24.9025 10.3057 24.6824 10.3985 24.5195 10.5614C24.3566 10.7243 24.2637 10.9444 24.2607 11.1748V18.1518ZM11.1789 18.6285C11.0521 18.6282 10.927 18.6 10.8124 18.5457C10.6978 18.4914 10.5966 18.4125 10.5161 18.3145L8.76023 16.1982C8.61955 16.0415 8.44745 15.9161 8.25511 15.8303C8.06278 15.7445 7.85453 15.7001 7.64392 15.7001C7.43331 15.7001 7.22506 15.7445 7.03273 15.8303C6.8404 15.9161 6.66829 16.0415 6.52761 16.1982L2.77168 20.7681C2.84474 21.7152 3.27179 22.6 3.96779 23.2465C4.66379 23.8929 5.57771 24.2536 6.52761 24.2566H20.4815C21.4296 24.2408 22.3369 23.8681 23.0224 23.2129C23.7078 22.5576 24.1209 21.668 24.1793 20.7216L18.0512 13.7446C17.9089 13.5948 17.7376 13.4754 17.5477 13.3938C17.3577 13.3123 17.1532 13.2702 16.9465 13.2702C16.7398 13.2702 16.5353 13.3123 16.3454 13.3938C16.1555 13.4754 15.9842 13.5948 15.8418 13.7446L11.8417 18.3262C11.6667 18.5067 11.43 18.6147 11.1789 18.6285ZM16.0389 13.9244L12.0334 18.5121C11.8117 18.7407 11.5117 18.8772 11.1936 18.8948L11.1783 18.8956C11.0123 18.8953 10.8483 18.8578 10.6982 18.7867C10.5484 18.7157 10.416 18.6125 10.3107 18.4846C10.3105 18.4843 10.3108 18.4848 10.3107 18.4846L8.55847 16.3727C8.44341 16.2455 8.30309 16.1437 8.14646 16.0738C7.98832 16.0033 7.81709 15.9668 7.64392 15.9668C7.47075 15.9668 7.29953 16.0033 7.14138 16.0738C6.98492 16.1436 6.84474 16.2453 6.72976 16.3722L3.04726 20.8528C3.13757 21.6932 3.52821 22.4743 4.14927 23.0511C4.79616 23.6519 5.64559 23.9871 6.52846 23.9899H20.4792C21.3594 23.9748 22.2017 23.6285 22.8381 23.0201C23.4489 22.4363 23.8269 21.6521 23.9048 20.8132L17.8544 13.9247C17.7377 13.8027 17.5976 13.7055 17.4424 13.6389C17.2858 13.5716 17.117 13.5369 16.9465 13.5369C16.776 13.5369 16.6073 13.5716 16.4506 13.6389C16.2956 13.7054 16.1556 13.8026 16.0389 13.9244Z" fill="#653012"/>
<path id="Vector_2" d="M4.49268 7.68625C4.49268 8.31871 4.68022 8.93697 5.0316 9.46284C5.38297 9.98871 5.8824 10.3986 6.46671 10.6406C7.05103 10.8826 7.694 10.946 8.3143 10.8226C8.93461 10.6992 9.5044 10.3946 9.95162 9.94742C10.3988 9.5002 10.7034 8.93041 10.8268 8.31011C10.9502 7.6898 10.8868 7.04683 10.6448 6.46252C10.4028 5.8782 9.99291 5.37878 9.46703 5.0274C8.94116 4.67602 8.32291 4.48848 7.69045 4.48848C6.84235 4.48848 6.02898 4.82539 5.42928 5.42508C4.82958 6.02478 4.49268 6.83815 4.49268 7.68625ZM9.14398 7.68625C9.14398 7.97373 9.05873 8.25476 8.89902 8.49379C8.7393 8.73282 8.51229 8.91913 8.24669 9.02914C7.98109 9.13915 7.68884 9.16794 7.40688 9.11185C7.12492 9.05577 6.86593 8.91733 6.66265 8.71405C6.45937 8.51077 6.32093 8.25178 6.26484 7.96982C6.20876 7.68786 6.23754 7.39561 6.34756 7.13001C6.45757 6.86441 6.64388 6.6374 6.88291 6.47768C7.12194 6.31797 7.40297 6.23272 7.69045 6.23272C8.07595 6.23272 8.44566 6.38586 8.71825 6.65845C8.99084 6.93104 9.14398 7.30075 9.14398 7.68625ZM18.1559 6.23272H20.7722V8.84908C20.7722 9.08038 20.8641 9.3022 21.0277 9.46576C21.1912 9.62931 21.4131 9.7212 21.6444 9.7212C21.8757 9.7212 22.0975 9.62931 22.261 9.46576C22.4246 9.3022 22.5165 9.08038 22.5165 8.84908V6.23272H25.1328C25.3641 6.23272 25.586 6.14083 25.7495 5.97728C25.9131 5.81373 26.005 5.5919 26.005 5.3606C26.005 5.1293 25.9131 4.90747 25.7495 4.74392C25.586 4.58036 25.3641 4.48848 25.1328 4.48848H22.5165V1.87212C22.5165 1.64082 22.4246 1.41899 22.261 1.25544C22.0975 1.09188 21.8757 1 21.6444 1C21.4131 1 21.1912 1.09188 21.0277 1.25544C20.8641 1.41899 20.7722 1.64082 20.7722 1.87212V4.48848H18.1559C17.9246 4.48848 17.7028 4.58036 17.5392 4.74392C17.3756 4.90747 17.2838 5.1293 17.2838 5.3606C17.2838 5.5919 17.3756 5.81373 17.5392 5.97728C17.7028 6.14083 17.9246 6.23272 18.1559 6.23272Z" fill="#653012"/>
<path id="Vector (Stroke)_2" fill-rule="evenodd" clip-rule="evenodd" d="M4.80994 9.61105C4.42926 9.04133 4.22607 8.37152 4.22607 7.68632C4.22607 6.76749 4.59108 5.8863 5.24078 5.23659C5.89049 4.58688 6.77169 4.22188 7.69051 4.22188C8.37571 4.22188 9.04553 4.42506 9.61525 4.80574C10.185 5.18642 10.629 5.72749 10.8912 6.36053C11.1535 6.99358 11.2221 7.69016 11.0884 8.36219C10.9547 9.03423 10.6248 9.65153 10.1402 10.136C9.65573 10.6206 9.03843 10.9505 8.36639 11.0842C7.69436 11.2179 6.99777 11.1493 6.36473 10.887C5.73169 10.6248 5.19061 10.1808 4.80994 9.61105ZM8.67736 8.3457C8.80777 8.15052 8.87738 7.92105 8.87738 7.68632C8.87738 7.37154 8.75234 7.06965 8.52975 6.84707C8.30717 6.62449 8.00529 6.49945 7.69051 6.49945C7.45577 6.49945 7.2263 6.56906 7.03113 6.69947C6.83595 6.82989 6.68382 7.01525 6.59399 7.23212C6.50416 7.44899 6.48066 7.68763 6.52645 7.91786C6.57225 8.14809 6.68529 8.35957 6.85127 8.52556C7.01726 8.69154 7.22874 8.80458 7.45897 8.85038C7.6892 8.89617 7.92784 8.87267 8.14471 8.78284C8.36158 8.693 8.54694 8.54088 8.67736 8.3457ZM20.5056 6.49945H18.156C17.8539 6.49945 17.5643 6.37947 17.3507 6.16591C17.1371 5.95234 17.0172 5.66269 17.0172 5.36066C17.0172 5.05864 17.1371 4.76898 17.3507 4.55542C17.5643 4.34186 17.8539 4.22188 18.156 4.22188H20.5056V1.87218C20.5056 1.57016 20.6256 1.28051 20.8392 1.06694C21.0527 0.853377 21.3424 0.733398 21.6444 0.733398C21.9465 0.733398 22.2361 0.853377 22.4497 1.06694C22.6632 1.28051 22.7832 1.57016 22.7832 1.87218V4.22188H25.1329C25.4349 4.22188 25.7246 4.34186 25.9382 4.55542C26.1517 4.76898 26.2717 5.05864 26.2717 5.36066C26.2717 5.66269 26.1517 5.95234 25.9382 6.16591C25.7246 6.37947 25.4349 6.49945 25.1329 6.49945H22.7832V8.84914C22.7832 9.15117 22.6632 9.44082 22.4497 9.65438C22.2361 9.86795 21.9465 9.98793 21.6444 9.98793C21.3424 9.98793 21.0527 9.86795 20.8392 9.65438C20.6256 9.44082 20.5056 9.15117 20.5056 8.84914V6.49945ZM5.03166 9.4629C4.68029 8.93703 4.49274 8.31877 4.49274 7.68632C4.49274 6.83821 4.82965 6.02485 5.42935 5.42515C6.02905 4.82545 6.84241 4.48854 7.69051 4.48854C8.32297 4.48854 8.94123 4.67609 9.4671 5.02747C9.99297 5.37884 10.4028 5.87826 10.6449 6.46258C10.8869 7.0469 10.9502 7.68986 10.8268 8.31017C10.7035 8.93048 10.3989 9.50027 9.95168 9.94748C9.50446 10.3947 8.93468 10.6993 8.31437 10.8226C7.69406 10.946 7.0511 10.8827 6.46678 10.6407C5.88246 10.3986 5.38304 9.98877 5.03166 9.4629ZM8.89908 8.49385C9.0588 8.25482 9.14405 7.9738 9.14405 7.68632C9.14405 7.30081 8.99091 6.9311 8.71832 6.65851C8.44573 6.38592 8.07601 6.23278 7.69051 6.23278C7.40303 6.23278 7.12201 6.31803 6.88297 6.47775C6.64394 6.63746 6.45764 6.86447 6.34762 7.13007C6.23761 7.39567 6.20882 7.68793 6.26491 7.96989C6.32099 8.25184 6.45943 8.51084 6.66271 8.71412C6.86599 8.9174 7.12499 9.05583 7.40694 9.11192C7.6889 9.168 7.98116 9.13922 8.24676 9.0292C8.51235 8.91919 8.73937 8.73289 8.89908 8.49385ZM18.156 6.23278C17.9247 6.23278 17.7028 6.1409 17.5393 5.97734C17.3757 5.81379 17.2838 5.59196 17.2838 5.36066C17.2838 5.12936 17.3757 4.90754 17.5393 4.74398C17.7028 4.58043 17.9247 4.48854 18.156 4.48854H20.7723V1.87218C20.7723 1.64088 20.8642 1.41906 21.0277 1.2555C21.1913 1.09195 21.4131 1.00007 21.6444 1.00007C21.8757 1.00007 22.0976 1.09195 22.2611 1.2555C22.4247 1.41906 22.5165 1.64088 22.5165 1.87218V4.48854H25.1329C25.3642 4.48854 25.586 4.58043 25.7496 4.74398C25.9131 4.90754 26.005 5.12936 26.005 5.36066C26.005 5.59196 25.9131 5.81379 25.7496 5.97734C25.586 6.1409 25.3642 6.23278 25.1329 6.23278H22.5165V8.84914C22.5165 9.08044 22.4247 9.30227 22.2611 9.46582C22.0976 9.62938 21.8757 9.72126 21.6444 9.72126C21.4131 9.72126 21.1913 9.62938 21.0277 9.46582C20.8642 9.30227 20.7723 9.08044 20.7723 8.84914V6.23278H18.156Z" fill="#653012"/>
</g>
</g>
</svg>
