<svg width="19" height="19" viewBox="0 0 19 19" fill="none" xmlns="http://www.w3.org/2000/svg">
<g id="Group">
<g id="Group_2">
<path id="Vector" fill-rule="evenodd" clip-rule="evenodd" d="M11.2933 1.29294C12.1485 0.465434 13.2947 0.007185 14.4848 0.0170002C15.6748 0.0268154 16.8133 0.503908 17.6548 1.34541C18.4963 2.18691 18.9734 3.32541 18.9832 4.51543C18.993 5.70546 18.5348 6.85167 17.7073 7.70694L13.7103 11.7039C13.2911 12.1306 12.791 12.4694 12.2394 12.7006C11.6877 12.9318 11.0955 13.0506 10.4974 13.0503C9.89929 13.0499 9.30724 12.9303 8.75587 12.6984C8.20451 12.4666 7.7049 12.1271 7.28626 11.6999C7.10502 11.5097 7.00592 11.2558 7.0104 10.9931C7.01488 10.7304 7.12257 10.48 7.31018 10.2961C7.4978 10.1121 7.75027 10.0094 8.01301 10.0101C8.27575 10.0109 8.52766 10.115 8.71425 10.2999C8.94703 10.5376 9.22491 10.7264 9.53159 10.8553C9.83827 10.9842 10.1676 11.0506 10.5003 11.0506C10.8329 11.0506 11.1622 10.9842 11.4689 10.8553C11.7756 10.7264 12.0535 10.5376 12.2863 10.2999L12.2933 10.2929L16.2933 6.29294C16.7688 5.81741 17.0359 5.17245 17.0359 4.49994C17.0359 3.82744 16.7688 3.18247 16.2933 2.70694C15.8177 2.23141 15.1728 1.96426 14.5003 1.96426C13.8277 1.96426 13.1828 2.23141 12.7073 2.70694L12.2073 3.20694C12.115 3.30245 12.0047 3.37863 11.8827 3.43104C11.7607 3.48345 11.6294 3.51104 11.4967 3.51219C11.3639 3.51334 11.2322 3.48804 11.1093 3.43776C10.9864 3.38748 10.8748 3.31323 10.7809 3.21934C10.687 3.12544 10.6127 3.01379 10.5624 2.89089C10.5122 2.768 10.4869 2.63632 10.488 2.50354C10.4892 2.37076 10.5167 2.23954 10.5692 2.11754C10.6216 1.99553 10.6977 1.88519 10.7933 1.79294L11.2933 1.29294Z" fill="#EEEEEE"/>
<path id="Vector_2" fill-rule="evenodd" clip-rule="evenodd" d="M7.75723 5.29998C8.58857 4.95086 9.50561 4.85954 10.3895 5.03784C11.2733 5.21615 12.0833 5.65586 12.7142 6.29998C12.8955 6.49021 12.9946 6.74412 12.9901 7.00683C12.9856 7.26953 12.8779 7.51992 12.6903 7.70386C12.5027 7.8878 12.2502 7.99051 11.9875 7.98978C11.7247 7.98906 11.4728 7.88495 11.2862 7.69998C11.0534 7.46233 10.7756 7.27352 10.4689 7.14462C10.1622 7.01572 9.83289 6.94933 9.50023 6.94933C9.16756 6.94933 8.83824 7.01572 8.53156 7.14462C8.22488 7.27352 7.94701 7.46233 7.71423 7.69998L7.70723 7.70698L3.70723 11.707C3.23169 12.1825 2.96454 12.8275 2.96454 13.5C2.96454 13.833 3.03013 14.1627 3.15756 14.4703C3.28499 14.778 3.47177 15.0575 3.70723 15.293C3.94269 15.5284 4.22222 15.7152 4.52986 15.8427C4.83751 15.9701 5.16724 16.0357 5.50023 16.0357C6.17273 16.0357 6.81769 15.7685 7.29323 15.293L7.79323 14.793C7.88547 14.6975 7.99582 14.6213 8.11782 14.5689C8.23983 14.5165 8.37105 14.4889 8.50383 14.4877C8.63661 14.4866 8.76828 14.5119 8.89118 14.5622C9.01408 14.6124 9.12573 14.6867 9.21962 14.7806C9.31351 14.8745 9.38777 14.9861 9.43805 15.109C9.48833 15.2319 9.51363 15.3636 9.51248 15.4964C9.51132 15.6292 9.48374 15.7604 9.43133 15.8824C9.37892 16.0044 9.30274 16.1147 9.20723 16.207L8.70723 16.707C7.85668 17.5575 6.70309 18.0354 5.50023 18.0354C4.29737 18.0354 3.14378 17.5575 2.29323 16.707C1.44268 15.8564 0.964844 14.7028 0.964844 13.5C0.964844 12.2971 1.44268 11.1435 2.29323 10.293L6.28923 6.29598C6.70771 5.87022 7.20674 5.53099 7.75723 5.29998Z" fill="#EEEEEE"/>
</g>
</g>
</svg>
