<svg width="18" height="18" viewBox="0 0 18 18" fill="none" xmlns="http://www.w3.org/2000/svg">
<g id="Group">
<g id="Group_2">
<path id="Vector" d="M9 9C9.19891 9 9.38968 9.07902 9.53033 9.21967C9.67098 9.36032 9.75 9.55109 9.75 9.75V14.25C9.75 14.4489 9.67098 14.6397 9.53033 14.7803C9.38968 14.921 9.19891 15 9 15C8.80109 15 8.61032 14.921 8.46967 14.7803C8.32902 14.6397 8.25 14.4489 8.25 14.25V9.75C8.25 9.55109 8.32902 9.36032 8.46967 9.21967C8.61032 9.07902 8.80109 9 9 9ZM6.75 10.5C6.94891 10.5 7.13968 10.579 7.28033 10.7197C7.42098 10.8603 7.5 11.0511 7.5 11.25V14.25C7.5 14.4489 7.42098 14.6397 7.28033 14.7803C7.13968 14.921 6.94891 15 6.75 15C6.55109 15 6.36032 14.921 6.21967 14.7803C6.07902 14.6397 6 14.4489 6 14.25V11.25C6 11.0511 6.07902 10.8603 6.21967 10.7197C6.36032 10.579 6.55109 10.5 6.75 10.5ZM11.25 10.5C11.4489 10.5 11.6397 10.579 11.7803 10.7197C11.921 10.8603 12 11.0511 12 11.25V14.25C12 14.4489 11.921 14.6397 11.7803 14.7803C11.6397 14.921 11.4489 15 11.25 15C11.0511 15 10.8603 14.921 10.7197 14.7803C10.579 14.6397 10.5 14.4489 10.5 14.25V11.25C10.5 11.0511 10.579 10.8603 10.7197 10.7197C10.8603 10.579 11.0511 10.5 11.25 10.5Z" fill="#BBBBBB"/>
<path id="Vector_2" fill-rule="evenodd" clip-rule="evenodd" d="M6.75 0C6.15326 0 5.58097 0.237053 5.15901 0.65901C4.73705 1.08097 4.5 1.65326 4.5 2.25V3H0.75C0.551088 3 0.360322 3.07902 0.21967 3.21967C0.0790178 3.36032 0 3.55109 0 3.75C0 3.94891 0.0790178 4.13968 0.21967 4.28033C0.360322 4.42098 0.551088 4.5 0.75 4.5H1.57875L2.856 15.9982C2.9171 16.5487 3.17905 17.0572 3.5917 17.4265C4.00434 17.7959 4.53871 18.0001 5.0925 18H12.9075C13.4613 18.0001 13.9957 17.7959 14.4083 17.4265C14.821 17.0572 15.0829 16.5487 15.144 15.9982L16.4212 4.5H17.25C17.4489 4.5 17.6397 4.42098 17.7803 4.28033C17.921 4.13968 18 3.94891 18 3.75C18 3.55109 17.921 3.36032 17.7803 3.21967C17.6397 3.07902 17.4489 3 17.25 3H13.5V2.25C13.5 1.65326 13.2629 1.08097 12.841 0.65901C12.419 0.237053 11.8467 0 11.25 0H6.75ZM12 3V2.25C12 2.05109 11.921 1.86032 11.7803 1.71967C11.6397 1.57902 11.4489 1.5 11.25 1.5H6.75C6.55109 1.5 6.36032 1.57902 6.21967 1.71967C6.07902 1.86032 6 2.05109 6 2.25V3H12ZM4.347 15.8325L3.08775 4.5H14.9122L13.6522 15.8325C13.632 16.0159 13.5448 16.1854 13.4074 16.3085C13.27 16.4317 13.092 16.4998 12.9075 16.5H5.0925C4.90786 16.5 4.72971 16.4319 4.59216 16.3088C4.4546 16.1856 4.36731 16.016 4.347 15.8325Z" fill="#BBBBBB"/>
</g>
</g>
</svg>
